<svg xmlns="http://www.w3.org/2000/svg" height="1024" preserveAspectRatio="none" style="display: block;" version="1.1" viewBox="0 0 2048 1536" width="1365">
<defs>
	<linearGradient gradientUnits="userSpaceOnUse" id="Gradient1" x1="474.176" x2="453.008" y1="848.461" y2="871.621">
		<stop class="stop0" offset="0" stop-color="rgb(54,50,63)" stop-opacity="1"></stop>
		<stop class="stop1" offset="1" stop-color="rgb(17,34,66)" stop-opacity="1"></stop>
	</linearGradient>
</defs>
<path d="M 0 0 L 2048 0 L 2048 1536 L 0 1536 L 0 0 z" fill="rgb(255,255,255)" transform="translate(0,0)"></path>
<path d="M 440.41 455.825 C 424.288 500.608 439.639 529.444 485.389 541.128 C 499.607 510.172 507.18 504.258 538.24 490.189 C 529.787 510.082 521.509 529.874 538.771 547.441 C 553.289 549.902 567.949 552.179 581.695 557.684 C 606.507 567.62 629.869 590.387 640.587 615.064 C 642.24 618.871 643.605 628.468 646.245 630.923 C 662.755 646.276 721.166 674.806 728.112 692.692 C 732.741 704.611 726.165 728.072 721.027 739.37 C 715.717 751.045 707.709 756.677 695.902 760.988 C 692.335 765.838 687.048 774.353 682.774 777.388 C 665.174 789.891 631.146 774.352 613.739 767.658 C 612.279 767.097 601.829 766.463 598.204 765.823 C 573.092 809.48 557.935 846.001 526.468 888.661 C 520.22 895.417 508.505 904.398 500.94 910.01 L 496.171 913.845 C 482.681 925.562 470.156 935.291 456.749 946.542 C 452.607 950.972 444.387 959.161 439.132 962.089 L 435.353 965.084 L 433.82 966.711 C 430.424 969.807 424.618 975.13 420.43 976.99 C 364.69 921.865 324.632 859.754 299.39 785.29 C 329.508 721.293 391.094 635.821 437.93 583.562 C 426.239 576.055 416.858 567.996 409.073 556.284 C 398.793 541.068 395.131 522.331 398.926 504.365 C 403.998 479.743 420.951 468.401 440.41 455.825 z" fill="rgb(255,255,255)" transform="translate(0,0)"></path>
<path d="M 440.41 455.825 C 424.288 500.608 439.639 529.444 485.389 541.128 C 499.607 510.172 507.18 504.258 538.24 490.189 C 529.787 510.082 521.509 529.874 538.771 547.441 C 553.289 549.902 567.949 552.179 581.695 557.684 C 606.507 567.62 629.869 590.387 640.587 615.064 C 642.24 618.871 643.605 628.468 646.245 630.923 C 662.755 646.276 721.166 674.806 728.112 692.692 C 732.741 704.611 726.165 728.072 721.027 739.37 C 715.717 751.045 707.709 756.677 695.902 760.988 C 692.335 765.838 687.048 774.353 682.774 777.388 C 665.174 789.891 631.146 774.352 613.739 767.658 C 612.279 767.097 601.829 766.463 598.204 765.823 C 573.092 809.48 557.935 846.001 526.468 888.661 C 520.22 895.417 508.505 904.398 500.94 910.01 L 501.133 904.142 L 503.693 899.975 C 511.657 888.739 518.371 877.272 525.172 865.32 C 524.122 864.313 523.113 863.263 522.15 862.173 C 502.835 840.051 484.746 807.047 478.891 778.32 C 477.862 773.272 476.011 767.243 476.379 762.265 C 480.401 778.464 489.466 800.53 498.292 814.764 C 502.493 817.88 508.459 826.374 512.375 830.877 C 520.191 839.866 525.18 844.136 534.466 851.258 C 537.661 845.356 541.917 838.711 545.439 832.897 C 543.752 831.575 542.125 830.178 540.563 828.71 C 512.629 802.315 486.934 754.249 479.355 716.632 C 475.884 699.398 475.049 685.807 474.468 668.276 C 476.859 678.761 478.929 687.463 482.071 697.726 C 486.715 702.06 491.548 711.475 496.209 717.048 C 506.921 729.857 516.851 737.77 532.83 742.738 C 545.639 746.72 554.837 745.676 567.139 746.874 C 587.071 738.603 596.656 731.242 612.975 717.691 C 613.453 715.831 613.989 713.986 614.582 712.159 C 615.903 708.13 617.962 704.425 621.893 702.448 C 619.424 721.554 622.063 726.41 635.585 741.427 C 653.289 761.089 687.565 758.852 706.106 742.071 C 716.758 732.431 718.559 708.246 717.898 694.061 C 709.227 686.07 691.947 675.769 681.362 668.774 C 666.182 658.742 649.146 644.993 633.585 636.232 C 624.291 637.974 620.566 638.153 610.967 638.262 C 611.737 641.926 616.826 651.908 616.437 652.505 C 600.457 676.997 582.69 648.892 576.969 636.944 C 589.389 648.6 591.102 651.169 607.617 655.077 L 608.413 653.81 C 601.962 649.885 587.205 644.814 586.154 638.369 C 585.631 635.164 586.257 630.815 584.973 627.913 C 581.478 625.266 576.338 626.685 569.282 624.256 L 568.13 623.852 C 575.993 621.913 580.152 621.3 588.233 620.442 C 578.428 611.52 572.439 604.344 565.405 593.092 C 576.276 601.888 616.529 639.17 631.496 625.897 C 632.307 621.013 627.27 614.004 624.275 609.512 C 602.496 576.85 585.787 568.501 549.833 560.373 C 551.989 585.766 547.502 597.764 520.287 601.462 C 508.705 611.01 513.311 613.574 508.522 627.138 C 492.636 648.096 487.359 651.259 462.838 661.226 C 454.048 663.223 445.432 665.262 436.538 666.771 C 422.664 686.809 329.465 817.128 334.087 830.043 C 334.3 830.638 334.945 831.423 335.334 831.936 C 345.438 839.439 359.314 869.733 368.739 881.363 C 380.909 896.379 392.164 911.922 405.43 926.359 C 415.461 937.276 431.458 950.821 435.353 965.084 L 433.82 966.711 C 430.424 969.807 424.618 975.13 420.43 976.99 C 364.69 921.865 324.632 859.754 299.39 785.29 C 329.508 721.293 391.094 635.821 437.93 583.562 C 426.239 576.055 416.858 567.996 409.073 556.284 C 398.793 541.068 395.131 522.331 398.926 504.365 C 403.998 479.743 420.951 468.401 440.41 455.825 z" fill="rgb(28,44,80)" transform="translate(0,0)"></path>
<path d="M 335.334 831.936 C 345.438 839.439 359.314 869.733 368.739 881.363 C 380.909 896.379 392.164 911.922 405.43 926.359 C 415.461 937.276 431.458 950.821 435.353 965.084 L 433.82 966.711 C 392.751 938.578 353.768 877.474 335.334 831.936 z" fill="rgb(209,209,210)" transform="translate(0,0)"></path>
<path d="M 482.071 697.726 C 486.715 702.06 491.548 711.475 496.209 717.048 C 506.921 729.857 516.851 737.77 532.83 742.738 C 545.639 746.72 554.837 745.676 567.139 746.874 C 540.17 756.887 520.988 751.335 500.43 730.895 C 490.867 721.388 485.635 710.628 482.071 697.726 z" fill="rgb(209,209,210)" transform="translate(0,0)"></path>
<path d="M 498.292 814.764 C 502.493 817.88 508.459 826.374 512.375 830.877 C 520.191 839.866 525.18 844.136 534.466 851.258 C 533.217 853.777 533.306 854.049 530.993 855.761 C 521.704 854.809 502.278 823.46 498.292 814.764 z" fill="rgb(209,209,210)" transform="translate(0,0)"></path>
<path d="M 409.293 500.954 C 413.966 490.616 417.771 484.988 425.862 476.833 C 418.36 548.582 488.476 553.673 541.56 559.106 C 542.225 563.861 543.685 570.662 542.409 575.003 C 539.848 578.113 539.361 578.585 534.606 579.072 C 532.585 579.265 530.561 579.426 528.535 579.555 L 530.223 581.249 C 534.233 581.002 537.05 580.206 539.731 582.453 L 539.395 584.641 C 517.914 610.664 387.236 583.208 409.293 500.954 z" fill="rgb(255,255,255)" transform="translate(0,0)"></path>
<path d="M 409.293 500.954 L 412.129 502.359 C 415.785 514.788 414.745 519.795 420.714 535.99 C 424.466 540.224 430.697 549.27 434.539 552.489 C 457.918 572.081 498.189 581.659 528.535 579.555 L 530.223 581.249 C 534.233 581.002 537.05 580.206 539.731 582.453 L 539.395 584.641 C 517.914 610.664 387.236 583.208 409.293 500.954 z" fill="rgb(209,209,210)" transform="translate(0,0)"></path>
<path d="M 420.714 535.99 C 424.466 540.224 430.697 549.27 434.539 552.489 C 457.918 572.081 498.189 581.659 528.535 579.555 L 530.223 581.249 C 512.686 584.496 482.278 578.085 465.206 572.361 C 451.654 567.816 423.865 551.204 420.714 535.99 z" fill="rgb(16,16,17)" transform="translate(0,0)"></path>
<path d="M 316.294 790.734 C 347.335 731.2 392.104 669.344 433.217 616.112 C 437.32 610.801 447.062 597.302 452.785 593.639 C 454.856 592.314 457.908 593.758 460.095 594.502 C 460.471 596.868 452.321 605.58 450.101 609.207 C 438.55 628.075 434.078 646.677 427.356 667.052 L 431.041 667.925 C 430.973 672.012 404.004 703.302 399.61 708.901 C 373.969 741.572 348.991 774.831 328.227 810.877 C 327.88 811.48 326.935 811.823 326.327 812.095 C 324.666 810.496 324.807 810.57 324.044 808.368 C 321.495 802.135 319.211 796.796 316.294 790.734 z" fill="rgb(255,255,255)" transform="translate(0,0)"></path>
<path d="M 324.044 808.368 C 334.914 782.492 353.062 760.66 367.912 737.743 C 375.968 725.311 426.482 672.648 427.356 667.052 L 431.041 667.925 C 430.973 672.012 404.004 703.302 399.61 708.901 C 373.969 741.572 348.991 774.831 328.227 810.877 C 327.88 811.48 326.935 811.823 326.327 812.095 C 324.666 810.496 324.807 810.57 324.044 808.368 z" fill="rgb(209,209,210)" transform="translate(0,0)"></path>
<path d="M 494.08 737.542 C 530.523 768.068 544.798 767.116 586.06 746.54 C 590.218 748.943 593.47 748.033 598.71 747.604 L 606.677 742.483 L 607.314 743.481 C 606.849 744.96 606.413 746.448 606.003 747.943 L 606.824 748.575 C 604.128 749.92 601.937 750.978 599.158 752.135 C 596.759 752.576 591.649 753.513 590.149 755.279 C 582.614 764.151 576.447 777.535 570.541 787.754 C 565.74 796.186 560.535 804.382 554.946 812.313 C 530.967 798.057 505.14 762.997 494.08 737.542 z" fill="rgb(209,209,210)" transform="translate(0,0)"></path>
<path d="M 613.359 725.48 C 627.454 742.045 634.496 759.703 660.275 762.563 C 667.45 763.359 678.994 759.443 682.883 761.418 C 683.094 763.531 683.079 763.337 681.535 765.164 C 673.079 775.174 657.94 772.972 646.311 769.134 C 638.655 767.251 615.8 755.721 613.547 755.597 C 602.91 757.674 608.021 756.473 599.753 752.421 L 599.158 752.135 C 601.937 750.978 604.128 749.92 606.824 748.575 L 606.003 747.943 C 606.413 746.448 606.849 744.96 607.314 743.481 L 606.677 742.483 L 598.71 747.604 C 593.47 748.033 590.218 748.943 586.06 746.54 C 595.224 739.632 604.298 732.256 613.359 725.48 z" fill="rgb(255,255,255)" transform="translate(0,0)"></path>
<path d="M 615.949 745.976 C 619.848 748.606 644.929 766.811 646.311 769.134 C 638.655 767.251 615.8 755.721 613.547 755.597 C 602.91 757.674 608.021 756.473 599.753 752.421 L 599.158 752.135 C 601.937 750.978 604.128 749.92 606.824 748.575 L 615.949 745.976 z" fill="rgb(209,209,210)" transform="translate(0,0)"></path>
<path d="M 615.949 745.976 C 612.746 748.264 609.579 750.603 606.45 752.991 L 606.234 754.542 C 608.611 755.839 610.786 755.555 613.547 755.597 C 602.91 757.674 608.021 756.473 599.753 752.421 L 599.158 752.135 C 601.937 750.978 604.128 749.92 606.824 748.575 L 615.949 745.976 z" fill="rgb(47,62,80)" transform="translate(0,0)"></path>
<path d="M 468.593 596.234 C 486.455 600.293 498.473 601.873 516.573 602.125 C 498.15 617.835 494.194 606.409 472.948 617.858 C 460.683 626.99 456.577 631.75 446.845 643.094 C 450.015 629.907 460.061 606.908 468.593 596.234 z" fill="rgb(255,255,255)" transform="translate(0,0)"></path>
<path d="M 520.028 509.745 L 521.053 509.933 C 522.734 513.095 519.744 521.754 520.267 526.796 C 521.08 534.644 523.751 540.203 526.77 547.279 C 520.334 547.1 512.481 546.021 505.976 545.303 L 494.686 543.374 C 500.542 529.176 507.091 518.269 520.028 509.745 z" fill="rgb(255,255,255)" transform="translate(0,0)"></path>
<path d="M 423.77 731.549 C 422.15 741.823 419.004 752.456 417.374 763.55 C 408.005 827.292 417.741 893.946 456.749 946.542 C 452.607 950.972 444.387 959.161 439.132 962.089 C 396.257 898.014 393.968 801.137 423.77 731.549 z" fill="rgb(28,44,80)" transform="translate(0,0)"></path>
<path d="M 429.665 798.656 C 438.708 828.887 444.584 848.147 467.332 872.036 C 471.813 872.882 498.255 895.412 503.693 899.975 L 501.133 904.142 L 500.94 910.01 L 496.171 913.845 C 461.083 881.577 433.669 847.67 429.665 798.656 z" fill="url(#Gradient1)" transform="translate(0,0)"></path>
<path d="M 467.332 872.036 C 471.813 872.882 498.255 895.412 503.693 899.975 L 501.133 904.142 C 492.015 899.592 474.06 880.112 467.332 872.036 z" fill="rgb(209,209,210)" transform="translate(0,0)"></path>
<path d="M 508.522 627.138 C 505.694 638.79 495.926 651.931 485.623 658.295 C 479.978 661.782 469.048 664.279 462.838 661.226 C 487.359 651.259 492.636 648.096 508.522 627.138 z" fill="rgb(209,209,210)" transform="translate(0,0)"></path>
<path d="M 686.299 726.48 C 671.669 716.704 679.311 685.875 697.484 684.419 C 697.376 686.029 691.771 692.328 690.323 694.107 L 692.241 694.893 C 696.595 693.873 698.018 694.149 702.332 694.532 L 704.308 696.483 C 703.982 698.008 702.562 704.085 701.941 705.246 C 698.283 715.042 697.23 723.16 686.299 726.48 z" fill="rgb(28,44,80)" transform="translate(0,0)"></path>
<path d="M 702.332 694.532 L 704.308 696.483 C 703.982 698.008 702.562 704.085 701.941 705.246 C 699.629 706.966 692.851 712.687 691.04 712.9 L 690.947 706.354 C 692.806 702.827 694.839 701.162 697.645 698.359 C 699.385 697.286 700.802 695.895 702.332 694.532 z" fill="rgb(28,44,80)" transform="translate(0,0)"></path>
<path d="M 701.941 705.246 C 698.283 715.042 697.23 723.16 686.299 726.48 L 687.278 724.856 C 688.47 723.086 689.592 716.436 691.04 712.9 C 692.851 712.687 699.629 706.966 701.941 705.246 z" fill="rgb(209,209,210)" transform="translate(0,0)"></path>
<path d="M 685.062 706.778 L 690.947 706.354 L 691.04 712.9 C 689.592 716.436 688.47 723.086 687.278 724.856 C 684.052 718.502 684.727 713.761 685.062 706.778 z" fill="rgb(255,255,255)" transform="translate(0,0)"></path>
<path d="M 685.062 706.778 C 688.459 700.153 690.236 698.676 697.645 698.359 C 694.839 701.162 692.806 702.827 690.947 706.354 L 685.062 706.778 z" fill="rgb(209,209,210)" transform="translate(0,0)"></path>
<path d="M 641 796.101 C 700.134 840.472 767.149 881.374 827.562 924.678 C 843.973 936.442 872.278 953.811 886.248 966.287 C 910.799 948.451 941.605 926.831 967.099 910.351 C 958.686 903.791 951.967 899.851 944.662 891.799 C 957.575 890.907 971.712 890.879 984.717 891.089 C 1011.89 891.529 1039.57 890.418 1066.68 891.26 L 1051.54 956.983 C 1049.21 967.162 1046.78 980.379 1044.05 990.17 C 1035.92 981.814 1025.42 971.619 1017.84 963.065 C 994.709 981.437 967.154 1000.34 943.202 1018.28 C 929.664 1028.43 900.906 1050.78 887.57 1058.77 C 860.808 1038.63 830.391 1019.76 802.619 1000.8 L 646.068 892.881 L 489.275 1018.29 C 465.348 1037.35 430.231 1063.29 408.33 1082.97 C 397.696 1069.25 386.88 1055.68 375.886 1042.24 C 371.686 1037.1 364.26 1028.98 360.714 1024.01 C 374.091 1014 387.278 1003.73 400.267 993.218 C 404.353 989.941 416.703 979.45 420.43 976.99 C 424.618 975.13 430.424 969.807 433.82 966.711 L 435.353 965.084 L 439.132 962.089 C 444.387 959.161 452.607 950.972 456.749 946.542 C 470.156 935.291 482.681 925.562 496.171 913.845 L 500.94 910.01 C 508.505 904.398 520.22 895.417 526.468 888.661 C 531.367 888.104 625.874 806.151 641 796.101 z" fill="rgb(28,118,194)" transform="translate(0,0)"></path>
<path d="M 641.398 814.687 C 648.146 818.7 661.892 829.07 668.703 833.883 C 683.797 844.548 699.024 855.025 714.379 865.31 C 772.065 904.209 829.491 943.49 886.654 983.151 C 893.435 979.05 910.071 967.288 916.783 962.501 C 934.922 949.565 974.66 925.36 989.187 910.639 L 978.781 905.173 C 1001.36 904.484 1025.55 904.758 1048.14 905.095 C 1044.49 922.873 1040.51 940.583 1036.2 958.214 C 1033.21 952.167 1030.28 945.07 1027.53 938.831 C 1016.59 945.309 994.028 962.756 982.933 970.87 L 888.43 1040.78 C 854.126 1019.01 813.771 990.244 779.884 966.978 C 736.966 936.474 688.709 904.643 644.853 874.736 C 567.185 938.049 488.846 1000.53 409.85 1062.18 C 401.019 1050.23 391.997 1038.43 382.788 1026.77 C 392.18 1017.55 412.385 1001.94 422.953 993.407 L 480.997 946.096 L 641.398 814.687 z" fill="rgb(255,255,255)" transform="translate(0,0)"></path>
<path d="M 1652.57 675.429 C 1676.71 675.283 1698.86 679.832 1717.89 694.967 C 1769.26 735.839 1755.36 820.03 1693.66 842.635 C 1683 846.537 1675.32 847.733 1664.45 848.928 C 1638.01 849.53 1616.26 844.533 1595.76 826.9 C 1578.37 811.999 1567.74 790.691 1566.31 767.83 C 1562.49 713.792 1600.51 678.707 1652.57 675.429 z" fill="rgb(28,44,80)" transform="translate(0,0)"></path>
<path d="M 1655.18 709.141 C 1684.3 707.76 1709.04 730.211 1710.49 759.33 C 1711.94 788.448 1689.55 813.246 1660.43 814.764 C 1631.22 816.287 1606.32 793.803 1604.87 764.588 C 1603.42 735.372 1625.96 710.527 1655.18 709.141 z" fill="rgb(255,255,255)" transform="translate(0,0)"></path>
<path d="M 792.651 678.105 C 821.382 678.38 863.2 675.057 889.956 682.746 C 926.746 693.318 932.684 740.8 894.858 758.407 L 895.526 758.631 C 923.398 768.214 935.811 789.183 925.315 817.702 C 907.111 850.455 870.78 846.71 838.528 846.608 L 792.884 846.582 L 792.651 678.105 z" fill="rgb(28,44,80)" transform="translate(0,0)"></path>
<path d="M 830.926 773.029 C 845.879 772.859 870.85 770.738 882.802 779.656 C 887.477 783.194 890.396 788.578 890.809 794.426 C 891.375 801.529 888.685 806.929 884.234 812.084 C 870.785 821.954 847.726 819.571 830.899 819.38 L 830.926 773.029 z" fill="rgb(255,255,255)" transform="translate(0,0)"></path>
<path d="M 830.704 703.983 C 855.814 703.656 898.893 702.382 877.895 742.072 C 865.906 750.977 845.98 748.507 830.837 748.246 L 830.704 703.983 z" fill="rgb(255,255,255)" transform="translate(0,0)"></path>
<path d="M 1330.8 676.37 C 1360.87 672.934 1385.28 678.588 1410.67 695.106 C 1406.02 702.167 1400.1 714.078 1394.88 722.475 C 1391.73 720.569 1388.55 718.723 1385.34 716.936 C 1356.54 701.188 1311.48 703.2 1294.87 734.826 C 1281.58 760.123 1289.36 798.839 1316.78 811.327 C 1335.2 819.72 1355.97 818.991 1374.63 812.847 L 1374.54 784.489 L 1349.72 784.06 C 1349.91 775.803 1347.83 767.236 1350.98 760.814 C 1354.44 758.497 1355.27 759.302 1360.01 759.328 L 1408.87 759.679 L 1408.66 831.313 C 1371.19 853.745 1315.4 856.768 1279.65 829.187 C 1262.74 816.338 1251.79 797.165 1249.31 776.074 C 1242.52 721.1 1277.31 683.027 1330.8 676.37 z" fill="rgb(28,44,80)" transform="translate(0,0)"></path>
<path d="M 1064.44 678.86 L 1103.04 678.861 L 1102.82 711.25 C 1102.91 747.51 1108.57 797.623 1081.28 825.345 C 1051.49 855.606 995.603 856.172 965.345 826.088 C 942.691 803.564 945.913 763.581 945.921 733.631 L 945.987 678.98 L 984.77 679.054 C 984.861 698.137 984.809 717.221 984.613 736.304 C 984.478 758.581 981.599 789.215 997.88 806.571 C 1011.2 820.606 1037.8 820.538 1051.22 806.774 C 1067.71 789.842 1064.51 761.759 1064.45 739.669 C 1064.32 719.399 1064.32 699.129 1064.44 678.86 z" fill="rgb(28,44,80)" transform="translate(0,0)"></path>
<path d="M 1438.16 678.149 C 1475.22 677.901 1514.99 677.538 1551.9 678.542 L 1551.87 704.538 C 1526.62 704.302 1501.36 704.286 1476.11 704.491 L 1476.23 747.822 L 1537.95 747.85 L 1537.95 774.09 L 1476.79 774.039 L 1476.63 785.967 L 1476.61 818.11 L 1554.49 818.067 L 1554.27 845.897 L 1438.15 845.95 L 1438.16 678.149 z" fill="rgb(28,44,80)" transform="translate(0,0)"></path>
<path d="M 1131.29 678.995 L 1169.64 678.923 L 1169.78 817.924 C 1194.36 818.188 1219.55 817.806 1244.17 817.705 L 1244.23 846.08 L 1131.76 846.102 C 1131.28 790.401 1131.13 734.698 1131.29 678.995 z" fill="rgb(28,44,80)" transform="translate(0,0)"></path>
<path d="M 1230.97 907.124 C 1253.69 905.185 1256.16 928.511 1240.43 939.724 C 1219.11 942.006 1215.72 915.969 1230.97 907.124 z" fill="rgb(16,16,17)" transform="translate(0,0)"></path>
<path d="M 1234.51 909.129 C 1251.22 912.201 1250.43 931.119 1237.67 937.855 C 1221.58 934.584 1221.17 915.416 1234.51 909.129 z" fill="rgb(255,255,255)" transform="translate(0,0)"></path>
<path d="M 1263.85 915.202 C 1266.21 915.165 1272.62 915.204 1273.9 917.418 C 1276.57 923.034 1280.04 931.648 1274.35 936.444 C 1268.53 941.349 1263.24 937.86 1259.53 939.237 C 1259.73 943.186 1259.86 943.701 1258.91 947.457 L 1257.81 947.903 C 1256.1 942.425 1254.96 921.579 1256.73 916.296 L 1258.19 915.855 L 1259.59 918.079 L 1263.85 915.202 z" fill="rgb(16,16,17)" transform="translate(0,0)"></path>
<path d="M 1265.91 916.892 C 1276.56 919.719 1276.14 932.957 1266.65 937.95 C 1264.57 937.211 1263.42 936.507 1261.52 935.453 C 1256.61 928.055 1258.7 921.554 1265.91 916.892 z" fill="rgb(255,255,255)" transform="translate(0,0)"></path>
<path d="M 1439.65 916.08 C 1457.21 913.997 1459.1 928.388 1449.65 939.65 C 1432.57 941.701 1430.51 926.242 1439.65 916.08 z" fill="rgb(16,16,17)" transform="translate(0,0)"></path>
<path d="M 1441.7 917.822 C 1455.34 918.04 1454.3 930.287 1446.94 938.338 C 1434.87 937.395 1435.09 925.472 1441.7 917.822 z" fill="rgb(255,255,255)" transform="translate(0,0)"></path>
<path d="M 1317.56 914.882 C 1320.74 915.535 1323.81 917.678 1325.92 918.728 C 1326.13 918.831 1330.76 915.241 1331.39 915.116 C 1335.67 914.263 1336.53 917.575 1340.26 918.044 C 1344.18 917.506 1347.1 916.82 1351.11 916.565 L 1352.77 918.05 C 1354.4 923.348 1354.2 932.879 1353.7 938.467 L 1352.48 939.056 C 1349.22 933.424 1353.86 919.838 1346.05 917.062 C 1338.23 920.318 1341.26 930.883 1338.48 939.411 C 1337.22 935.075 1337.52 931.28 1337.52 926.75 C 1337.76 922.184 1337.39 918.223 1332.11 917.393 C 1320.73 922.095 1329.31 932.956 1324.69 939.13 C 1322.24 935.282 1325.19 925.276 1320.48 918.201 C 1317.28 916.903 1318.68 917.04 1314.84 918.404 C 1308.48 925.229 1315.34 934.837 1310.15 939.512 C 1308.65 935.51 1307.84 919.501 1309.9 916.113 L 1312.4 917.99 C 1314.71 917.321 1315.12 916.825 1316.96 915.363 L 1317.56 914.882 z" fill="rgb(16,16,17)" transform="translate(0,0)"></path>
<path d="M 1391.72 916.089 C 1393.58 915.869 1398.39 915.151 1399.88 915.991 C 1406.19 919.526 1407.92 934.127 1404.65 939.808 L 1403.09 939.963 L 1401.53 937.609 C 1397.01 939.756 1396.38 940.043 1391.32 940.423 C 1388.5 936.78 1388.15 935.474 1389.01 931.209 C 1392.1 927.605 1396.3 927.291 1400.67 924.978 C 1402.18 921.573 1401.91 923.289 1401.57 919.646 C 1398.11 917.821 1395.36 918.861 1390.79 918.536 L 1391.72 916.089 z" fill="rgb(16,16,17)" transform="translate(0,0)"></path>
<path d="M 1399.72 926.676 L 1401.26 927.671 C 1402.88 931.236 1402.7 929.685 1401.95 933.516 C 1399.23 937.122 1398.61 937.339 1394.39 939.061 C 1391.97 936.106 1391.62 935.229 1392.14 931.648 C 1394.65 928.542 1396 928.293 1399.72 926.676 z" fill="rgb(255,255,255)" transform="translate(0,0)"></path>
<path d="M 1469.94 914.813 C 1483.11 916.579 1483.47 937.652 1477.55 940.313 C 1473.5 932.858 1483.35 923.064 1469.76 916.629 C 1459.39 925.652 1465.53 929.069 1463.01 939.528 L 1461.74 939.621 C 1460.71 933.601 1460.19 922.179 1461.26 916.193 L 1462.58 915.801 L 1464 919.227 L 1469.94 914.813 z" fill="rgb(16,16,17)" transform="translate(0,0)"></path>
<path d="M 1367.53 916.473 C 1372.51 915.33 1380.43 915.581 1385.79 915.533 C 1380.81 923.351 1375.13 928.867 1370.24 937.46 C 1375.25 937.742 1381.6 937.427 1386.74 937.308 C 1381.04 941.665 1373.37 940.067 1365.59 939.746 C 1370.12 932.939 1376.16 925.17 1381.02 918.152 C 1376.36 917.999 1371.69 918.294 1367.53 916.473 z" fill="rgb(16,16,17)" transform="translate(0,0)"></path>
<path d="M 1285.01 910.632 L 1286.49 911.069 C 1286.8 912.41 1287.15 913.743 1287.53 915.066 C 1289.31 915.55 1291.09 916.076 1292.85 916.645 L 1292.6 917.885 C 1290.12 917.98 1289.95 917.893 1287.49 918.688 C 1284.99 924.667 1285.66 929.62 1287.92 935.624 C 1288.57 937.332 1291.75 937.611 1293.45 938.043 C 1291 940.064 1289.57 940.186 1286.71 939.396 C 1282.55 934.744 1284.1 925.942 1283.63 919.199 L 1281.06 917.669 L 1280.87 916.296 C 1283.23 914.293 1283.65 913.425 1285.01 910.632 z" fill="rgb(16,16,17)" transform="translate(0,0)"></path>
<path d="M 1414.07 909.608 C 1415.31 911.127 1415.73 912.873 1416.19 914.708 L 1416.35 915.362 L 1421.06 916.231 L 1420.93 917.444 L 1416.54 918.407 C 1414.23 922.183 1414.62 926.645 1415.3 930.848 C 1416.34 937.262 1416.23 936.538 1420.74 939.917 C 1417.82 940.151 1417.97 940.158 1415.19 939.23 C 1410.26 933.643 1413.88 927.033 1412.89 919.232 L 1410.08 917.822 C 1409.9 914.782 1411.85 916.739 1414.07 909.608 z" fill="rgb(16,16,17)" transform="translate(0,0)"></path>
<path d="M 1426.21 915.292 L 1427.64 915.864 C 1430.19 919.743 1428.86 934.578 1428.58 940.085 C 1427.08 939.57 1427.56 939.685 1426.31 938.416 C 1425.44 931.342 1426 922.544 1426.21 915.292 z" fill="rgb(16,16,17)" transform="translate(0,0)"></path>
<path d="M 1298.99 915.559 L 1300.8 917.553 C 1301.69 924.446 1301.27 933.053 1300.56 939.988 L 1299.15 938.855 C 1297.84 933.451 1298.62 921.377 1298.99 915.559 z" fill="rgb(16,16,17)" transform="translate(0,0)"></path>
<path d="M 1360.27 915.704 C 1363 918.071 1362.03 933.851 1362.63 939.717 C 1360.92 939.046 1361.53 939.323 1360.14 937.92 C 1359.05 931.164 1359.77 922.567 1360.27 915.704 z" fill="rgb(16,16,17)" transform="translate(0,0)"></path>
<metadata><recraft-signature>{"signed_by": "recraft", "signature_b64": "TljdnCLB6VocK3FcUcTa3LQwBG6PyPZeCQ2065c/jzd+4MixPLuM2Tpmb9qH7xT0kKvpb39eR9aVMQsOgQXZAA==", "signing_algo": "Ed25519", "generation_timestamp": 1772255181, "identifier": "7898bde7-ccff-4024-8e7c-f5f702139ee4"}</recraft-signature></metadata></svg>